<?xml version="1.0" encoding="UTF-8"?>
<svg version="1.1" xmlns="http://www.w3.org/2000/svg" width="512" height="512">
<path d="M0 0 C1.66364891 -0.00374083 3.32729606 -0.00834408 4.99094045 -0.01373065 C9.54371328 -0.02592265 14.09641241 -0.02570467 18.64919782 -0.02334189 C23.56690421 -0.02293276 28.48458727 -0.03398211 33.40228271 -0.04345703 C43.03033528 -0.06004746 52.65836334 -0.0655657 62.286429 -0.06668179 C70.11595798 -0.06763325 77.94547891 -0.07174844 85.77500534 -0.07808304 C107.99123881 -0.09569058 130.20745299 -0.10492274 152.42369349 -0.10342209 C154.2190264 -0.10330222 154.2190264 -0.10330222 156.05062866 -0.10317993 C157.84816324 -0.10305729 157.84816324 -0.10305729 159.68201165 -0.10293217 C179.09604569 -0.10211955 198.5100021 -0.12125257 217.92401369 -0.14945666 C237.87591201 -0.17821258 257.8277725 -0.19199545 277.77969205 -0.19026911 C288.97400719 -0.18960612 300.16824095 -0.19505863 311.36253738 -0.21662521 C320.89486906 -0.23487271 330.42708248 -0.23915511 339.95942409 -0.22560637 C344.81814788 -0.21909456 349.67664502 -0.21889462 354.53534698 -0.23631287 C358.99297529 -0.25212817 363.45019883 -0.24909443 367.90781777 -0.2317446 C369.51075574 -0.2286932 371.11372457 -0.232236 372.71662612 -0.24346475 C391.63182428 -0.36707566 409.27962874 3.61899834 423.40487671 16.9571228 C435.23519736 28.65361185 441.72014451 42.80733286 441.83970747 59.41317673 C441.84473335 61.64207825 441.840008 63.87084639 441.83514404 66.0997467 C441.83888313 67.72255963 441.84348568 69.34537076 441.84887469 70.96817905 C441.86108826 75.4172471 441.86084615 79.86623986 441.85848594 84.31532085 C441.85807735 89.11780316 441.86912093 93.92026146 441.87860107 98.72273254 C441.89520329 108.12813397 441.90071028 117.53351032 441.90182583 126.93892517 C441.90277672 134.5859382 441.90688906 142.23294297 441.91322708 149.87995338 C441.93083774 171.56982496 441.94006628 193.25967676 441.93856613 214.94955554 C441.93844626 216.70296198 441.93844626 216.70296198 441.93832397 218.49179077 C441.93824221 219.66215894 441.93816045 220.83252712 441.93807621 222.03836099 C441.93726347 241.00189281 441.95639863 259.96534517 441.98460071 278.92885401 C442.01334273 298.40945949 442.02714026 317.89002623 442.02541316 337.37065345 C442.02474969 348.30389087 442.03022304 359.23704499 442.05176926 370.17026329 C442.06999842 379.47984948 442.07431414 388.78931462 442.06075041 398.09891095 C442.05422942 402.84586142 442.05407212 407.5925798 442.07145691 412.33950806 C442.08723123 416.69158873 442.08427973 421.04325411 442.06688865 425.39532492 C442.06382831 426.96327629 442.06741443 428.531259 442.0786088 430.09917339 C442.20394246 448.91123078 436.6436989 464.04392138 423.41928101 477.53695679 C408.51962594 491.80388677 390.98057045 494.57728432 371.13543701 494.53485107 C369.4717881 494.53859191 367.80814095 494.54319515 366.14449656 494.54858172 C361.59172374 494.56077373 357.0390246 494.56055574 352.48623919 494.55819297 C347.56853281 494.55778383 342.65084974 494.56883319 337.7331543 494.57830811 C328.10510174 494.59489854 318.47707367 494.60041678 308.84900801 494.60153286 C301.01947903 494.60248432 293.1899581 494.60659952 285.36043167 494.61293411 C263.1441982 494.63054166 240.92798402 494.63977382 218.71174352 494.63827316 C217.51485491 494.63819325 216.31796631 494.63811334 215.08480835 494.63803101 C213.88645196 494.63794924 212.68809558 494.63786748 211.45342536 494.63778324 C192.03939132 494.63697062 172.62543491 494.65610364 153.21142332 494.68430774 C133.25952501 494.71306366 113.30766452 494.72684652 93.35574496 494.72512019 C82.16142982 494.72445719 70.96719606 494.72990971 59.77289963 494.75147629 C50.24056795 494.76972378 40.70835454 494.77400618 31.17601292 494.76045744 C26.31728913 494.75394564 21.45879199 494.75374569 16.60009003 494.77116394 C12.14246172 494.78697924 7.68523819 494.7839455 3.22761925 494.76659568 C1.62468127 494.76354427 0.02171244 494.76708708 -1.58118911 494.77831583 C-21.68001034 494.90966172 -38.7034373 490.03724723 -53.71353149 476.15805054 C-67.0519814 462.5455229 -70.74001892 446.90795117 -70.69970703 428.43510437 C-70.70344612 426.81229144 -70.70804867 425.18948031 -70.71343768 423.56667203 C-70.72565125 419.11760397 -70.72540914 414.66861121 -70.72304893 410.21953022 C-70.72264034 405.41704792 -70.73368392 400.61458962 -70.74316406 395.81211853 C-70.75976628 386.40671711 -70.76527327 377.00134076 -70.76638882 367.5959259 C-70.76733971 359.94891288 -70.77145205 352.30190811 -70.77779007 344.65489769 C-70.79540073 322.96502611 -70.80462927 301.27517431 -70.80312912 279.58529554 C-70.80304921 278.41635791 -70.8029693 277.24742028 -70.80288696 276.0430603 C-70.8028052 274.87269213 -70.80272344 273.70232396 -70.8026392 272.49649008 C-70.80182646 253.53295826 -70.82096161 234.5695059 -70.8491637 215.60599706 C-70.87790572 196.12539159 -70.89170325 176.64482484 -70.88997614 157.16419762 C-70.88931268 146.23096021 -70.89478603 135.29780608 -70.91633224 124.36458778 C-70.93456141 115.0550016 -70.93887713 105.74553645 -70.9253134 96.43594012 C-70.91879241 91.68898965 -70.91863511 86.94227128 -70.9360199 82.19534302 C-70.95179422 77.84326234 -70.94884272 73.49159696 -70.93145163 69.13952615 C-70.9283913 67.57157478 -70.93197742 66.00359208 -70.94317178 64.43567768 C-71.06850545 45.6236203 -65.50826188 30.4909297 -52.28384399 16.99789429 C-37.38418893 2.7309643 -19.84513344 -0.04243324 0 0 Z M-29.86978149 43.70492554 C-34.7876409 50.09536431 -36.55507525 55.71668993 -36.56370926 63.67187119 C-36.56576189 64.31567179 -36.56781453 64.9594724 -36.56992936 65.62278211 C-36.57560207 67.78883392 -36.57414178 69.95482219 -36.57272339 72.12088013 C-36.57530687 73.68605569 -36.57831998 75.25123059 -36.58172679 76.81640458 C-36.58980204 81.12452363 -36.59158665 85.43262602 -36.59232426 89.74075174 C-36.59417389 94.3843725 -36.60172076 99.02798459 -36.60845947 103.67160034 C-36.62204692 113.82860031 -36.62806812 123.98559633 -36.63247013 134.14260387 C-36.63523178 140.48326641 -36.63946899 146.82392742 -36.6439743 153.16458893 C-36.65616737 170.71605712 -36.6664667 188.26752409 -36.6698494 205.81899643 C-36.67006896 206.94253572 -36.67028853 208.06607502 -36.67051475 209.22366096 C-36.67073303 210.34990512 -36.6709513 211.47614928 -36.6711762 212.63652205 C-36.67161966 214.91876332 -36.67206623 217.20100459 -36.67251587 219.48324585 C-36.6727373 220.61531897 -36.67295873 221.7473921 -36.67318687 222.91377047 C-36.67713544 241.26013207 -36.69459111 259.60645398 -36.71787539 277.95280024 C-36.74158172 296.78349374 -36.75405091 315.6141673 -36.75521731 334.44487596 C-36.75613446 345.01973778 -36.76189686 355.59454786 -36.78003693 366.16939545 C-36.79542818 375.17361198 -36.80056412 384.17776079 -36.79229882 393.18198797 C-36.78838891 397.77636243 -36.7893386 402.37060047 -36.80335617 406.96495819 C-36.81607447 411.17192517 -36.81491583 415.37865293 -36.80276546 419.58561948 C-36.80080487 421.10649584 -36.8039036 422.62738902 -36.81260982 424.14824173 C-36.87439298 435.67164257 -35.69738242 444.61403128 -27.43228149 453.26742554 C-21.27960569 458.05679168 -16.45365391 459.39088462 -8.68425369 459.3988533 C-8.00330887 459.40090594 -7.32236404 459.40295857 -6.62078452 459.4050734 C-4.3283789 459.41074884 -2.03603325 459.40928549 0.25637817 459.40786743 C1.9122993 459.41045075 3.56821981 459.41346382 5.22413945 459.41687083 C9.78309294 459.42494791 14.34203069 459.4267308 18.90099049 459.4274683 C23.81455216 459.42931762 28.72810565 459.43686432 33.6416626 459.44360352 C44.38955288 459.45719224 55.13743943 459.46321235 65.88533688 459.46761417 C72.59452074 459.4703756 79.30370316 459.47461276 86.01288605 459.47911835 C104.58346338 459.49131155 123.15403956 459.50161087 141.72462082 459.50499344 C143.50786093 459.50532279 143.50786093 459.50532279 145.3271261 459.50565879 C147.11466563 459.50598621 147.11466563 459.50598621 148.93831706 459.50632024 C151.35319567 459.50676371 153.76807427 459.50721027 156.18295288 459.50765991 C157.97975285 459.50799206 157.97975285 459.50799206 159.81285182 459.50833091 C179.22618928 459.51227962 198.63948922 459.52973566 218.05281219 459.55301943 C237.9773576 459.57672376 257.90188417 459.58919487 277.82644391 459.59036136 C289.01610943 459.59127862 300.20572605 459.59704378 311.39537811 459.61518097 C320.92294217 459.63056952 330.45044223 459.63570976 339.97801635 459.62744287 C344.83972317 459.623532 349.70130107 459.62448728 354.5629921 459.63850021 C359.01421054 459.6512128 363.46520283 459.65006488 367.91642085 459.6379095 C369.52612556 459.63594792 371.13584616 459.63905218 372.74552855 459.64775386 C383.23419923 459.70086104 391.87204976 459.48514293 399.96224976 452.07992554 C405.59559967 445.7201339 407.68893337 439.21236321 407.70193958 430.86856651 C407.70429181 430.2253651 407.70664404 429.58216369 407.70906755 428.91947132 C407.715746 426.75544036 407.71529968 424.5914696 407.71488953 422.4274292 C407.71818887 420.86367884 407.72191459 419.29992933 407.72603101 417.7361809 C407.73605109 413.4319251 407.73976781 409.12768324 407.74242032 404.82341743 C407.74632333 400.18384696 407.75590166 395.54428754 407.76463318 390.90472412 C407.78439746 379.69675607 407.79446367 368.48878712 407.80336097 357.28080601 C407.80774385 352.0032498 407.81311065 346.7256946 407.81834984 341.44813919 C407.83536193 323.90525458 407.84985631 306.36237059 407.85709858 288.81947899 C407.85900848 284.26680882 407.86092882 279.71413866 407.86288452 275.16146851 C407.86336826 274.02992 407.863852 272.8983715 407.8643504 271.73253365 C407.87265146 253.40044333 407.89798977 235.06841825 407.9304652 216.73635642 C407.96353228 197.91695367 407.98154702 179.09758407 407.98474282 160.27815211 C407.98690822 149.71103217 407.9956613 139.14400737 408.02120399 128.57691574 C408.04290614 119.57786743 408.05096377 110.57893737 408.04123721 101.57986586 C408.03669115 96.9892527 408.03859658 92.39888355 408.05799866 87.80830383 C408.07562118 83.60240643 408.07464009 79.39693121 408.05910137 75.19102938 C408.05672391 73.67280636 408.06105605 72.15455417 408.07293002 70.63637571 C408.15411977 59.56631477 407.03435346 50.13256027 399.21224976 41.73617554 C393.30409411 36.45953297 387.54415556 35.14521987 379.80965996 35.13041115 C378.78660895 35.12643341 378.78660895 35.12643341 377.74289024 35.12237531 C375.44676406 35.11468725 373.15069141 35.11412333 370.85455322 35.11352539 C369.19593233 35.10951045 367.53731243 35.10507217 365.8786937 35.10024583 C361.31220369 35.08827813 356.74572425 35.08263143 352.17922163 35.07806468 C347.25743892 35.07210939 342.33566884 35.06049941 337.41389465 35.04977417 C325.52368369 35.0252493 313.63346854 35.0106233 301.74324006 34.9977141 C298.38536867 34.99400237 295.02749769 34.99002912 291.66962671 34.98596144 C270.8208517 34.96072617 249.97207603 34.93867154 229.12328911 34.92623329 C224.29389315 34.92330356 219.46449722 34.9203419 214.63510132 34.91732788 C213.43476868 34.91658183 212.23443603 34.91583578 210.99772967 34.91506712 C191.55015008 34.90241167 172.10266187 34.86918596 152.65512501 34.82752605 C132.6921504 34.78511224 112.72922259 34.76153893 92.76620305 34.75631273 C81.55631128 34.7528981 70.34656237 34.74113658 59.13671494 34.70820999 C49.59051641 34.68021606 40.04449002 34.66920734 30.49825363 34.68040545 C25.62810857 34.68559364 20.75832402 34.68269471 15.88823128 34.65793991 C11.42691185 34.63545231 6.96621201 34.63618344 2.50488175 34.65514378 C0.89378921 34.65794447 -0.7173453 34.65234139 -2.32837035 34.63733084 C-13.16659714 34.54254802 -22.15259247 35.3870602 -29.86978149 43.70492554 Z " fill="#5B6AEB" transform="translate(70.43228149414063,8.732574462890625)"/>
<path d="M0 0 C5.16900321 3.60628131 7.89786006 7.07736201 9.30510902 13.21670151 C10.20131555 19.44693341 9.95426227 25.79251879 9.93041992 32.07470703 C9.93149409 33.71817602 9.93343476 35.36164463 9.93617249 37.00511169 C9.94100479 41.45382089 9.93338331 45.90242919 9.92321944 50.35112619 C9.91440197 55.02240277 9.91619717 59.69367652 9.9165802 64.36495972 C9.91564455 72.21467768 9.90697748 80.06435692 9.89331055 87.9140625 C9.87761901 96.95938569 9.87231142 106.0046664 9.8730461 115.05000222 C9.8737247 124.71305142 9.86676252 134.37608448 9.8575995 144.03912878 C9.85547934 146.80648327 9.85475982 149.57383511 9.85436058 152.34119034 C9.85334675 156.71280755 9.84716649 161.0843899 9.83719444 165.45599556 C9.83430378 167.04977644 9.83303699 168.64356134 9.83362198 170.23734474 C9.84069683 201.28081553 4.53287221 226.78800335 -17.51953125 250.2421875 C-36.78813959 268.40588263 -60.32368234 275.47438663 -86.35546875 275.15625 C-109.17027942 274.42815647 -129.41873537 263.74672057 -145.3125 247.875 C-146.12847656 247.070625 -146.94445312 246.26625 -147.78515625 245.4375 C-156.18978712 236.67246472 -165.7335805 223.27489882 -165.75 210.8125 C-165.60323706 205.70132122 -164.93877522 202.69213181 -161.3125 198.875 C-155.76227282 194.68401213 -151.26254069 193.17337684 -144.3125 193.875 C-138.79717717 195.75020976 -135.49766617 199.13506934 -132.3125 203.875 C-131.39003781 205.75802016 -130.49624706 207.65524282 -129.625 209.5625 C-124.42156893 220.39052757 -116.11008661 228.59069986 -105.3125 233.875 C-104.57386719 234.26171875 -103.83523437 234.6484375 -103.07421875 235.046875 C-89.58303419 241.66067063 -75.29758951 240.9521801 -61.27246094 236.58154297 C-55.30268891 234.42951005 -49.58642874 231.16505589 -45.109375 226.65625 C-43.3125 224.875 -43.3125 224.875 -41.3125 224.875 C-41.05082031 224.30652344 -40.78914063 223.73804688 -40.51953125 223.15234375 C-39.21897521 220.69854385 -37.68051948 218.64714092 -36 216.4375 C-29.0815672 206.68814272 -26.1925516 196.21658246 -26.18119812 184.37380981 C-26.17908241 183.63928837 -26.17696669 182.90476692 -26.17478687 182.14798725 C-26.16881689 179.69776407 -26.16978486 177.24759283 -26.1706543 174.79736328 C-26.16762084 173.03608107 -26.16409887 171.27479963 -26.16012573 169.51351929 C-26.15225129 165.72563719 -26.14709734 161.93776445 -26.14383507 158.14987564 C-26.13791336 152.15708805 -26.12136251 146.16435948 -26.10249329 140.17160034 C-26.09615636 138.11808208 -26.08983073 136.06456379 -26.08351612 134.01104546 C-26.08035031 132.98282291 -26.0771845 131.95460037 -26.07392275 130.89521956 C-26.03187793 116.94789762 -25.99886494 103.00060379 -25.98657227 89.05322266 C-25.97818948 79.63861428 -25.9556932 70.22415278 -25.9172166 60.80961788 C-25.89746842 55.83059098 -25.88504741 50.85178356 -25.89005089 45.872715 C-25.89470049 41.18909696 -25.88087484 36.50589514 -25.85303879 31.82236099 C-25.84613312 30.10674404 -25.84599373 28.391084 -25.85323906 26.67546844 C-25.9214475 8.70533799 -25.9214475 8.70533799 -19.5234375 2 C-13.07676367 -1.95030226 -7.166527 -2.43391483 0 0 Z " fill="#645FEE" transform="translate(334.3125,119.125)"/>
</svg>
